<svg xmlns="http://www.w3.org/2000/svg" width="1999pt" height="577pt" viewBox="0 0 1999 577"><g id="#6dc9ccff">
</g><g id="#f9aa19ff"><path fill="#f9aa19" opacity="1.00" d=" M 441.56 119.49 C 454.13 115.11 467.66 111.49 481.02 113.90 C 487.33 114.92 492.89 118.28 497.78 122.25 C 505.69 128.26 513.24 134.98 518.85 143.24 C 531.00 145.21 543.37 147.45 554.86 152.20 C 566.81 157.09 578.72 164.22 585.40 175.66 C 590.68 184.55 590.63 195.70 587.20 205.24 C 582.27 218.91 573.06 230.60 562.91 240.81 C 561.06 231.31 557.32 222.29 553.52 213.42 C 547.54 200.42 539.87 187.34 527.65 179.31 C 519.37 173.75 508.46 172.41 499.21 176.30 C 482.33 165.02 460.87 159.88 440.90 164.55 C 425.38 168.09 411.77 177.45 401.01 188.94 C 388.56 202.19 379.32 218.08 371.46 234.37 C 365.30 247.68 360.07 262.07 360.86 276.96 C 361.29 286.78 365.46 296.01 371.11 303.91 C 358.27 301.95 345.24 299.38 333.67 293.23 C 326.35 289.33 319.53 283.31 317.19 275.09 C 314.63 266.06 317.45 256.54 321.55 248.42 C 328.31 235.35 338.25 224.27 348.58 213.93 C 344.56 202.54 342.90 189.70 347.15 178.11 C 350.74 168.05 358.95 160.28 368.30 155.47 C 392.42 142.91 415.91 128.81 441.56 119.49 Z"></path><path fill="#f9aa19" opacity="1.00" d=" M 532.01 428.69 C 561.20 434.52 590.15 445.43 613.08 464.88 C 629.37 478.61 641.85 496.84 648.56 517.08 C 654.95 536.27 656.88 556.98 653.93 577.00 L 476.73 577.00 C 473.29 567.71 476.58 557.77 480.00 549.00 C 483.31 540.32 488.96 532.75 491.95 523.93 C 495.13 515.09 496.36 505.27 493.89 496.09 C 491.84 487.40 486.47 479.99 480.16 473.87 C 481.27 471.69 484.08 470.50 485.08 468.05 C 487.66 464.16 486.89 459.38 486.66 455.01 C 493.92 448.63 503.91 447.82 512.64 444.60 C 520.59 441.76 528.92 437.05 532.01 428.69 Z"></path><path fill="#f9aa19" opacity="1.00" d=" M 319.38 452.24 C 337.95 441.87 358.24 434.86 378.95 430.16 C 378.08 432.69 377.20 436.22 379.79 438.08 C 382.08 439.32 384.79 440.53 385.51 443.32 C 387.49 450.84 382.80 458.46 384.89 465.97 C 385.53 468.95 389.62 469.74 389.49 473.06 C 389.36 479.38 385.64 484.85 383.72 490.73 C 381.88 495.68 380.43 502.20 384.68 506.37 C 387.92 509.68 388.59 514.57 388.38 519.01 C 387.91 527.98 384.87 536.59 381.29 544.75 C 385.27 543.89 388.98 541.76 391.82 538.86 C 392.67 537.62 394.48 536.46 393.69 534.71 C 394.19 534.26 394.85 534.27 395.36 534.72 C 394.03 539.92 394.04 545.49 394.33 550.85 C 394.62 550.80 395.20 550.72 395.48 550.67 C 397.36 546.84 397.86 542.46 400.09 538.78 C 400.46 538.91 401.21 539.17 401.58 539.30 C 403.61 546.01 403.40 553.18 403.45 560.13 C 408.65 551.14 410.76 540.27 409.96 529.92 C 409.61 524.26 407.12 519.07 404.61 514.16 C 412.11 503.62 416.13 489.28 410.64 476.96 C 412.08 469.03 414.07 460.93 413.17 452.77 C 421.12 453.22 429.07 453.27 437.03 453.29 C 445.95 453.60 455.75 454.35 462.94 460.22 C 462.76 464.08 460.99 468.72 464.04 471.94 C 465.17 473.63 467.94 473.79 468.72 475.60 C 459.23 484.19 451.48 495.43 449.40 508.27 C 447.94 516.14 450.19 524.14 448.65 532.02 C 447.30 542.51 440.98 552.54 431.09 556.84 C 440.36 555.14 448.49 549.74 455.22 543.32 C 456.78 547.55 458.11 551.88 460.15 555.91 C 463.86 563.78 469.43 570.54 475.16 577.00 L 334.53 577.00 C 333.21 560.24 326.14 544.27 316.06 530.95 C 304.11 515.26 287.93 503.23 270.43 494.38 C 283.43 476.98 300.44 462.77 319.38 452.24 Z"></path><path fill="#f9aa19" opacity="1.00" d=" M 1842.00 483.00 C 1851.35 479.48 1860.77 476.14 1870.08 472.53 C 1872.61 476.92 1876.49 480.25 1880.68 483.06 C 1877.42 484.76 1876.40 488.75 1877.96 491.97 C 1875.02 492.03 1872.04 493.97 1871.63 497.03 C 1871.09 499.04 1872.28 500.79 1873.00 502.58 C 1867.51 501.10 1863.28 507.74 1866.49 512.28 C 1861.44 511.10 1857.10 516.70 1859.49 521.31 C 1855.35 520.81 1851.81 524.78 1852.72 528.84 C 1848.31 529.04 1845.53 533.59 1846.96 537.68 C 1841.97 536.29 1837.59 541.70 1839.67 546.34 C 1835.46 544.40 1830.54 548.15 1831.06 552.67 C 1826.22 550.49 1820.93 555.06 1822.27 560.14 C 1818.07 558.23 1813.27 561.44 1813.22 565.96 C 1809.84 565.54 1806.36 567.02 1805.21 570.40 C 1803.40 570.18 1804.56 568.52 1804.68 567.44 C 1807.18 556.44 1808.29 545.19 1809.22 533.96 C 1811.68 532.88 1814.55 533.00 1817.16 532.20 C 1820.47 517.36 1822.71 502.23 1826.12 487.42 C 1831.51 486.38 1836.85 484.95 1842.00 483.00 Z"></path><path fill="#f9aa19" opacity="1.00" d=" M 1774.53 485.90 C 1778.30 486.98 1782.02 488.26 1785.77 489.46 C 1785.28 503.71 1784.15 517.95 1783.54 532.20 C 1785.45 532.42 1787.47 532.23 1789.38 532.71 C 1789.29 545.68 1789.36 558.71 1791.23 571.58 C 1790.15 572.04 1789.09 572.49 1788.04 572.93 C 1786.65 570.45 1784.11 568.87 1781.23 569.26 C 1782.67 564.83 1778.98 559.94 1774.23 560.86 C 1776.33 556.61 1773.02 551.67 1768.39 551.62 C 1771.15 547.43 1767.22 541.81 1762.43 542.39 C 1765.89 538.35 1762.75 531.71 1757.40 531.97 C 1760.16 528.35 1758.25 522.74 1753.72 521.83 C 1756.20 519.40 1756.63 515.39 1754.34 512.67 C 1764.21 506.84 1771.17 496.72 1774.53 485.90 Z"></path><path fill="#f9aa19" opacity="1.00" d=" M 1882.97 494.93 C 1884.32 494.60 1885.70 494.29 1886.97 493.59 C 1885.60 499.92 1881.90 505.42 1878.85 511.03 C 1872.79 520.87 1866.05 530.37 1858.27 538.93 L 1857.79 538.16 C 1858.75 536.83 1858.74 535.17 1858.69 533.61 C 1863.22 533.34 1866.11 528.35 1864.09 524.30 C 1869.46 525.11 1872.71 518.75 1869.99 514.45 C 1873.09 514.97 1876.58 513.23 1877.30 510.00 C 1877.99 507.87 1876.91 505.82 1875.88 504.04 C 1881.09 505.47 1885.42 499.56 1882.97 494.93 Z"></path><path fill="#f9aa19" opacity="1.00" d=" M 1742.00 516.83 C 1742.45 516.59 1743.34 516.13 1743.79 515.89 C 1743.33 519.30 1745.70 522.12 1748.82 523.12 C 1747.08 524.90 1745.97 527.49 1746.97 529.94 C 1747.76 532.59 1750.47 533.92 1753.06 534.13 C 1749.80 538.43 1753.38 545.05 1758.86 544.23 C 1755.12 548.01 1758.15 554.87 1763.50 554.66 C 1760.97 559.09 1764.89 564.76 1769.91 563.95 C 1767.84 568.34 1771.59 573.67 1776.48 572.93 C 1776.36 574.28 1776.25 575.64 1776.15 577.00 L 1773.47 577.00 C 1755.69 561.74 1747.93 538.72 1742.00 516.83 Z"></path><path fill="#f9aa19" opacity="1.00" d=" M 1851.02 541.02 C 1853.09 541.13 1855.26 540.95 1856.89 539.47 C 1856.15 542.33 1853.75 544.33 1851.75 546.34 C 1851.47 546.35 1850.91 546.36 1850.63 546.36 C 1851.51 544.67 1851.20 542.81 1851.02 541.02 Z"></path><path fill="#f9aa19" opacity="1.00" d=" M 1503.75 556.46 C 1531.87 556.30 1560.00 556.33 1588.13 556.45 C 1588.12 563.30 1588.14 570.15 1588.12 577.00 L 1503.75 577.00 C 1503.73 570.15 1503.72 563.31 1503.75 556.46 Z"></path><path fill="#f9aa19" opacity="1.00" d=" M 1834.31 557.37 C 1835.90 557.81 1837.51 558.09 1839.20 557.73 C 1837.40 561.00 1834.02 562.89 1831.29 565.27 C 1828.88 566.96 1826.76 569.34 1823.78 569.94 C 1825.40 568.21 1825.70 565.81 1825.28 563.56 C 1829.53 565.97 1834.89 562.14 1834.31 557.37 Z"></path><path fill="#f9aa19" opacity="1.00" d=" M 1817.42 571.43 C 1818.74 571.74 1820.07 571.71 1821.40 571.35 C 1820.65 573.48 1818.45 574.19 1816.58 574.98 C 1816.87 573.80 1817.15 572.62 1817.42 571.43 Z"></path></g><g id="#80151eff"><path fill="#80151e" opacity="1.00" d=" M 1396.47 153.34 C 1413.75 140.93 1434.98 135.26 1455.93 133.27 C 1474.39 131.73 1494.84 136.78 1507.06 151.56 C 1514.70 148.52 1523.25 150.17 1530.98 152.07 C 1541.20 154.82 1550.86 160.25 1557.73 168.41 C 1571.47 183.96 1576.50 205.49 1575.37 225.84 C 1572.76 221.72 1569.62 217.90 1565.98 214.67 C 1570.58 226.31 1567.40 239.12 1564.58 250.80 C 1562.02 245.47 1557.72 241.15 1553.21 237.45 C 1552.59 246.05 1552.57 254.70 1553.00 263.31 C 1550.07 255.06 1548.50 246.39 1546.11 237.97 C 1545.24 235.47 1545.24 232.55 1543.66 230.38 C 1531.13 217.81 1513.53 211.48 1496.08 210.09 C 1474.84 208.18 1453.37 212.99 1434.23 222.13 C 1428.52 225.31 1421.73 229.13 1420.20 236.01 C 1421.14 244.58 1419.86 253.64 1415.15 261.01 C 1412.47 265.62 1407.56 268.54 1405.57 273.60 C 1400.79 284.70 1400.04 297.02 1399.66 308.95 C 1394.11 301.97 1386.65 296.21 1377.86 294.11 C 1373.42 286.93 1373.14 278.14 1373.26 269.94 C 1373.70 257.79 1375.86 245.76 1378.85 233.99 C 1377.65 234.45 1377.46 235.91 1376.92 236.89 C 1374.15 243.97 1372.23 251.37 1370.75 258.82 C 1369.73 257.76 1369.92 256.23 1369.56 254.93 C 1368.27 247.68 1367.33 240.37 1366.94 233.02 C 1365.42 218.13 1373.53 204.51 1381.90 192.89 C 1379.86 193.70 1378.57 195.55 1377.27 197.20 C 1372.42 203.66 1369.02 211.02 1365.34 218.16 C 1365.86 208.30 1364.35 196.61 1371.87 188.91 C 1377.17 182.77 1383.99 178.27 1390.10 173.06 C 1384.23 174.99 1379.14 178.62 1374.08 182.05 C 1377.80 170.20 1386.62 160.59 1396.47 153.34 Z"></path><path fill="#80151e" opacity="1.00" d=" M 166.24 166.32 C 171.47 165.26 176.81 166.92 181.43 169.34 C 194.86 176.40 204.29 188.96 217.25 196.68 C 224.33 199.71 231.09 204.36 234.69 211.38 C 240.31 222.09 238.84 235.11 234.56 246.03 C 237.84 253.32 239.40 261.25 240.32 269.16 C 241.75 283.10 241.13 297.15 239.84 311.08 C 239.71 312.42 240.30 313.69 240.57 314.99 C 238.23 313.94 238.54 311.05 238.04 308.97 C 235.71 296.02 232.89 283.08 228.25 270.74 C 226.12 265.55 223.85 260.07 219.53 256.30 C 217.54 254.42 214.59 254.83 212.25 253.70 C 208.19 251.65 205.07 247.97 200.69 246.52 C 191.87 244.39 182.50 244.92 173.93 247.85 C 167.45 249.87 161.09 252.28 154.59 254.25 C 143.70 256.99 132.32 256.40 121.33 258.49 C 106.58 264.44 94.91 277.57 90.94 293.01 C 88.43 303.55 87.53 314.46 84.75 324.93 C 83.53 321.62 82.50 318.26 81.42 314.92 C 80.96 329.61 82.86 344.30 83.73 358.95 C 80.49 347.13 75.26 334.46 64.39 327.74 C 62.13 325.99 59.06 326.65 56.67 325.19 C 54.12 323.75 51.10 324.16 48.30 324.16 C 47.38 320.24 46.61 316.27 45.48 312.41 C 36.77 299.29 30.89 283.93 30.87 268.03 C 30.55 252.09 35.82 236.51 43.73 222.84 C 45.18 220.09 47.14 217.60 48.19 214.66 C 46.72 214.68 45.84 215.96 44.84 216.83 C 40.42 221.55 37.70 227.51 34.00 232.72 C 34.05 217.58 45.14 205.12 57.92 198.37 C 53.26 199.71 48.38 199.94 43.56 200.12 C 46.90 192.57 52.53 186.20 59.04 181.21 C 69.32 173.40 82.29 169.90 95.05 169.51 C 118.75 168.25 142.99 172.75 166.24 166.32 Z"></path><path fill="#80151e" opacity="1.00" d=" M 1757.64 251.77 C 1763.22 248.72 1769.59 247.16 1775.97 247.56 C 1781.81 247.91 1788.27 248.10 1793.02 252.01 C 1799.46 256.77 1805.41 262.19 1811.06 267.86 C 1818.57 275.40 1823.44 285.09 1826.91 295.05 C 1828.35 299.59 1828.18 304.42 1829.13 309.07 C 1831.82 322.26 1833.27 335.90 1838.84 348.31 C 1842.18 355.39 1844.85 362.77 1847.84 370.01 C 1848.54 372.71 1852.69 374.03 1854.15 371.22 C 1858.50 363.69 1861.17 355.25 1865.79 347.85 C 1868.65 343.59 1873.82 340.79 1879.02 341.66 C 1882.70 341.94 1885.21 345.17 1887.02 348.07 C 1890.31 354.61 1888.31 362.08 1888.07 369.03 C 1887.75 376.82 1886.26 385.05 1881.20 391.26 C 1878.12 395.54 1873.12 397.75 1869.63 401.61 C 1866.28 404.98 1863.56 408.90 1860.10 412.16 C 1857.40 414.61 1856.53 418.28 1855.06 421.47 C 1852.75 423.11 1850.12 424.32 1847.99 426.13 C 1853.90 442.19 1860.61 458.24 1870.08 472.53 C 1860.77 476.14 1851.35 479.48 1842.00 483.00 C 1836.85 484.95 1831.51 486.38 1826.12 487.42 C 1822.71 502.23 1820.47 517.36 1817.16 532.20 C 1814.55 533.00 1811.68 532.88 1809.22 533.96 C 1808.29 545.19 1807.18 556.44 1804.68 567.44 C 1804.56 568.52 1803.40 570.18 1805.21 570.40 C 1803.13 572.02 1802.66 574.64 1801.94 577.00 L 1792.28 577.00 C 1791.88 575.19 1791.53 573.39 1791.23 571.58 C 1789.36 558.71 1789.29 545.68 1789.38 532.71 C 1787.47 532.23 1785.45 532.42 1783.54 532.20 C 1784.15 517.95 1785.28 503.71 1785.77 489.46 C 1782.02 488.26 1778.30 486.98 1774.53 485.90 C 1774.77 473.93 1773.71 461.94 1771.38 450.19 C 1761.34 451.01 1751.14 452.52 1741.11 450.83 C 1733.70 449.65 1726.87 445.55 1722.27 439.66 C 1715.72 431.37 1712.32 421.15 1709.61 411.09 C 1706.02 397.25 1703.99 383.06 1702.40 368.87 C 1699.31 342.98 1698.27 316.48 1703.55 290.80 C 1706.16 288.87 1706.56 285.52 1707.65 282.68 C 1709.36 278.08 1710.93 273.12 1714.66 269.70 C 1721.44 263.19 1728.89 256.87 1738.00 253.96 C 1744.36 251.78 1751.61 255.40 1757.64 251.77 M 1711.76 326.74 C 1710.21 326.66 1708.70 326.31 1707.18 326.28 C 1707.10 329.11 1710.45 330.83 1712.93 330.18 C 1715.82 328.63 1718.57 326.53 1721.98 326.28 C 1729.94 325.54 1737.53 328.83 1744.73 331.78 C 1741.81 327.22 1737.39 323.33 1731.97 322.21 C 1724.91 320.47 1717.75 323.12 1711.76 326.74 M 1775.20 327.68 C 1782.74 326.39 1790.78 326.13 1798.08 328.74 C 1801.20 329.67 1802.90 332.60 1805.10 334.76 C 1807.19 335.36 1810.39 336.09 1811.77 333.82 C 1812.12 331.84 1809.42 332.63 1808.33 332.56 C 1804.96 329.60 1802.04 325.96 1797.78 324.25 C 1790.57 320.50 1780.83 321.71 1775.20 327.68 M 1745.44 345.43 C 1740.62 354.62 1735.24 363.78 1733.23 374.09 C 1732.83 376.60 1732.74 379.49 1734.37 381.63 C 1737.68 383.93 1741.95 384.56 1745.90 384.07 C 1747.77 383.67 1748.55 381.65 1748.64 379.92 C 1749.47 365.30 1750.79 350.72 1751.83 336.12 C 1748.82 338.45 1747.60 342.38 1745.44 345.43 Z"></path><path fill="#80151e" opacity="1.00" d=" M 1525.48 272.63 C 1533.27 270.67 1541.30 273.86 1547.53 278.49 C 1548.62 279.18 1549.79 280.59 1549.05 281.96 C 1548.74 283.85 1546.46 283.59 1545.10 283.85 C 1535.41 284.77 1525.62 285.74 1515.91 284.69 C 1513.95 284.74 1512.09 282.95 1513.05 280.94 C 1516.07 276.89 1520.60 273.97 1525.48 272.63 Z"></path><path fill="#80151e" opacity="1.00" d=" M 1455.39 273.55 C 1462.74 272.15 1470.28 275.41 1475.24 280.79 C 1476.43 281.77 1476.97 283.57 1476.00 284.92 C 1474.31 286.24 1472.00 285.97 1470.02 286.24 C 1460.67 286.67 1451.30 285.84 1442.02 284.76 C 1439.89 284.52 1439.41 281.34 1441.12 280.24 C 1445.32 277.04 1450.15 274.48 1455.39 273.55 Z"></path><path fill="#80151e" opacity="1.00" d=" M 190.18 312.33 C 201.29 303.68 218.26 305.15 228.87 313.67 C 219.89 314.41 210.94 312.39 201.96 313.20 C 198.29 313.34 194.71 314.16 191.11 314.84 C 189.51 315.35 188.76 313.05 190.18 312.33 Z"></path><path fill="#80151e" opacity="1.00" d=" M 113.98 327.96 C 123.05 317.49 138.97 311.85 152.04 318.13 L 152.59 319.05 C 152.36 319.43 151.92 320.21 151.69 320.59 C 144.33 320.52 137.01 321.76 130.00 323.96 C 124.70 325.43 119.54 327.74 113.98 327.96 Z"></path><path fill="#80151e" opacity="1.00" d=" M 1358.11 448.21 C 1379.27 439.89 1401.66 435.05 1424.20 432.39 C 1423.19 440.12 1420.75 447.80 1416.20 454.20 C 1412.83 458.88 1411.44 465.16 1413.44 470.68 C 1415.14 475.17 1418.37 478.92 1422.07 481.92 C 1430.21 488.40 1440.01 492.49 1450.04 495.01 C 1454.24 496.12 1458.61 496.29 1462.94 496.06 C 1478.23 495.69 1493.65 493.59 1508.05 488.26 C 1520.81 483.65 1532.84 475.74 1540.10 464.04 C 1545.96 454.95 1547.85 443.98 1548.09 433.33 C 1569.50 435.85 1590.80 440.00 1611.26 446.86 C 1630.78 453.53 1649.71 462.95 1665.02 476.99 C 1678.27 488.94 1688.08 504.46 1693.95 521.28 C 1683.86 523.23 1673.85 527.15 1666.23 534.23 C 1654.35 545.07 1649.55 561.43 1648.17 577.00 L 1588.12 577.00 C 1588.14 570.15 1588.12 563.30 1588.13 556.45 C 1588.65 556.38 1589.71 556.25 1590.24 556.18 C 1590.18 551.99 1591.04 547.25 1589.82 543.39 C 1560.35 543.38 1530.87 543.32 1501.40 543.42 C 1501.32 547.51 1501.34 551.62 1501.37 555.72 C 1501.97 555.91 1503.16 556.28 1503.75 556.46 C 1503.72 563.31 1503.73 570.15 1503.75 577.00 L 1271.43 577.00 C 1268.60 542.30 1280.67 506.22 1305.65 481.63 C 1320.34 466.72 1338.74 455.89 1358.11 448.21 Z"></path><path fill="#80151e" opacity="1.00" d=" M 64.53 444.60 C 71.23 438.90 80.31 436.37 89.02 437.12 C 89.41 437.24 90.19 437.48 90.58 437.59 C 87.47 440.46 83.18 441.42 79.74 443.82 C 73.78 447.63 67.60 453.32 67.76 460.99 C 68.18 468.71 73.43 474.97 78.71 480.13 C 94.87 494.81 114.71 504.58 134.33 513.76 C 146.87 519.54 159.71 524.69 172.68 529.45 C 175.73 530.65 174.96 534.88 176.85 537.06 C 179.02 536.00 181.09 534.77 183.14 533.49 C 190.67 529.29 197.66 523.53 202.01 515.98 C 206.73 507.86 206.41 497.58 202.84 489.09 C 199.75 481.57 195.22 474.58 189.60 468.71 C 189.70 468.49 189.89 468.05 189.99 467.83 C 190.78 466.44 191.23 464.90 191.83 463.43 C 198.20 464.91 203.63 469.03 207.87 473.90 C 217.93 486.88 219.85 504.86 215.39 520.37 C 213.16 528.52 208.27 535.58 203.16 542.18 C 198.28 548.88 192.22 554.60 186.23 560.28 C 183.93 561.94 181.22 564.43 178.21 563.77 C 176.49 561.83 177.13 558.90 176.26 556.57 C 172.75 560.30 168.50 563.91 163.06 563.91 C 151.66 563.85 140.82 559.60 130.28 555.70 C 111.71 548.09 93.94 538.27 78.20 525.78 C 66.82 516.44 55.59 505.63 50.54 491.44 C 48.23 485.33 48.66 478.68 49.35 472.32 C 50.17 471.40 50.19 470.09 50.56 468.98 C 52.87 459.82 57.15 450.75 64.53 444.60 Z"></path></g><g id="#7f151dff"><path fill="#7f151d" opacity="1.00" d=" M 440.90 164.55 C 460.87 159.88 482.33 165.02 499.21 176.30 C 508.46 172.41 519.37 173.75 527.65 179.31 C 539.87 187.34 547.54 200.42 553.52 213.42 C 557.32 222.29 561.06 231.31 562.91 240.81 C 566.32 262.44 559.77 284.21 550.79 303.72 C 546.47 312.56 542.11 321.59 536.03 329.37 C 540.83 312.74 544.04 295.38 543.03 278.01 C 542.32 267.63 539.97 256.93 533.77 248.37 C 529.90 242.84 523.98 239.38 519.17 234.78 C 507.37 223.93 497.13 210.61 492.70 195.00 C 491.46 195.02 490.78 196.22 489.94 196.94 C 484.77 202.46 479.24 207.63 473.82 212.90 C 468.25 218.00 463.12 223.70 456.61 227.66 C 445.46 234.88 432.57 239.53 422.78 248.74 C 416.92 254.11 413.36 262.10 414.20 270.11 C 414.60 278.13 418.99 285.17 420.33 293.00 C 422.03 301.05 421.25 309.83 416.85 316.93 C 414.80 320.72 411.50 323.85 410.26 328.05 C 409.40 331.54 412.32 334.19 414.56 336.37 C 421.39 342.84 423.64 352.82 422.61 361.92 C 422.31 364.24 421.79 366.52 421.51 368.84 C 422.25 370.90 424.02 372.63 423.86 374.98 C 423.95 384.42 418.98 392.85 415.04 401.11 C 417.24 405.85 416.39 411.07 415.12 415.93 C 412.95 423.88 409.92 431.56 406.63 439.10 C 410.58 442.58 412.86 447.51 413.17 452.77 C 414.07 460.93 412.08 469.03 410.64 476.96 C 416.13 489.28 412.11 503.62 404.61 514.16 C 407.12 519.07 409.61 524.26 409.96 529.92 C 410.76 540.27 408.65 551.14 403.45 560.13 C 403.40 553.18 403.61 546.01 401.58 539.30 C 401.21 539.17 400.46 538.91 400.09 538.78 C 397.86 542.46 397.36 546.84 395.48 550.67 C 395.20 550.72 394.62 550.80 394.33 550.85 C 394.04 545.49 394.03 539.92 395.36 534.72 C 394.85 534.27 394.19 534.26 393.69 534.71 C 394.48 536.46 392.67 537.62 391.82 538.86 C 388.98 541.76 385.27 543.89 381.29 544.75 C 384.87 536.59 387.91 527.98 388.38 519.01 C 388.59 514.57 387.92 509.68 384.68 506.37 C 380.43 502.20 381.88 495.68 383.72 490.73 C 385.64 484.85 389.36 479.38 389.49 473.06 C 389.62 469.74 385.53 468.95 384.89 465.97 C 382.80 458.46 387.49 450.84 385.51 443.32 C 384.79 440.53 382.08 439.32 379.79 438.08 C 377.20 436.22 378.08 432.69 378.95 430.16 C 381.98 422.59 388.31 416.31 389.25 407.99 C 388.35 405.03 387.48 401.96 388.27 398.86 C 390.00 390.51 394.21 382.94 398.63 375.75 C 395.36 374.76 393.20 371.88 391.94 368.85 C 389.01 361.99 388.39 354.42 388.10 347.04 C 387.73 341.33 388.61 335.48 386.95 329.91 C 384.21 319.91 376.96 312.18 371.11 303.91 C 365.46 296.01 361.29 286.78 360.86 276.96 C 360.07 262.07 365.30 247.68 371.46 234.37 C 379.32 218.08 388.56 202.19 401.01 188.94 C 411.77 177.45 425.38 168.09 440.90 164.55 Z"></path></g><g id="#48141aff"><path fill="#48141a" opacity="1.00" d=" M 1796.42 189.60 C 1806.46 185.88 1817.41 187.77 1827.81 188.69 C 1837.44 190.23 1847.77 191.40 1856.02 197.04 C 1864.65 206.76 1876.91 211.99 1886.64 220.39 C 1897.18 230.98 1903.76 244.79 1908.01 258.97 C 1915.31 279.41 1916.78 301.51 1914.93 323.01 C 1913.25 333.68 1909.47 343.87 1906.01 354.06 C 1901.76 366.46 1895.72 378.13 1889.82 389.80 C 1888.17 392.83 1886.90 396.09 1884.78 398.84 C 1876.55 409.62 1866.09 418.36 1856.72 428.08 C 1854.35 427.16 1855.80 423.46 1855.06 421.47 C 1856.53 418.28 1857.40 414.61 1860.10 412.16 C 1863.56 408.90 1866.28 404.98 1869.63 401.61 C 1873.12 397.75 1878.12 395.54 1881.20 391.26 C 1886.26 385.05 1887.75 376.82 1888.07 369.03 C 1888.31 362.08 1890.31 354.61 1887.02 348.07 C 1885.21 345.17 1882.70 341.94 1879.02 341.66 C 1873.82 340.79 1868.65 343.59 1865.79 347.85 C 1861.17 355.25 1858.50 363.69 1854.15 371.22 C 1852.69 374.03 1848.54 372.71 1847.84 370.01 C 1844.85 362.77 1842.18 355.39 1838.84 348.31 C 1833.27 335.90 1831.82 322.26 1829.13 309.07 C 1828.18 304.42 1828.35 299.59 1826.91 295.05 C 1823.44 285.09 1818.57 275.40 1811.06 267.86 C 1805.41 262.19 1799.46 256.77 1793.02 252.01 C 1788.27 248.10 1781.81 247.91 1775.97 247.56 C 1769.59 247.16 1763.22 248.72 1757.64 251.77 C 1751.61 255.40 1744.36 251.78 1738.00 253.96 C 1728.89 256.87 1721.44 263.19 1714.66 269.70 C 1710.93 273.12 1709.36 278.08 1707.65 282.68 C 1706.56 285.52 1706.16 288.87 1703.55 290.80 C 1700.63 289.56 1702.62 286.13 1701.82 283.84 C 1700.23 275.88 1699.60 267.53 1701.40 259.55 C 1703.10 252.13 1708.71 246.63 1711.91 239.92 C 1713.74 236.35 1713.74 232.16 1715.62 228.61 C 1719.65 220.27 1728.10 214.67 1737.03 212.84 C 1741.36 211.91 1745.46 209.61 1748.19 206.06 C 1751.08 202.39 1753.27 198.01 1757.22 195.28 C 1763.11 190.93 1770.81 189.76 1777.94 190.88 C 1784.09 192.00 1790.39 190.98 1796.42 189.60 Z"></path><path fill="#48141a" opacity="1.00" d=" M 1880.68 483.06 C 1883.01 482.30 1885.82 482.55 1887.58 484.45 C 1889.69 486.46 1889.72 489.89 1888.21 492.27 C 1887.90 492.60 1887.28 493.26 1886.97 493.59 C 1885.70 494.29 1884.32 494.60 1882.97 494.93 C 1885.42 499.56 1881.09 505.47 1875.88 504.04 C 1876.91 505.82 1877.99 507.87 1877.30 510.00 C 1876.58 513.23 1873.09 514.97 1869.99 514.45 C 1872.71 518.75 1869.46 525.11 1864.09 524.30 C 1866.11 528.35 1863.22 533.34 1858.69 533.61 C 1858.74 535.17 1858.75 536.83 1857.79 538.16 C 1857.57 538.49 1857.12 539.14 1856.89 539.47 C 1855.26 540.95 1853.09 541.13 1851.02 541.02 C 1851.20 542.81 1851.51 544.67 1850.63 546.36 C 1850.01 547.06 1849.43 547.78 1848.89 548.52 C 1846.94 549.61 1844.78 549.84 1842.67 549.22 C 1843.14 550.84 1843.19 552.48 1842.83 554.14 C 1841.88 555.60 1840.60 556.74 1839.20 557.73 C 1837.51 558.09 1835.90 557.81 1834.31 557.37 C 1834.89 562.14 1829.53 565.97 1825.28 563.56 C 1825.70 565.81 1825.40 568.21 1823.78 569.94 C 1822.96 570.40 1822.16 570.86 1821.40 571.35 C 1820.07 571.71 1818.74 571.74 1817.42 571.43 C 1817.15 572.62 1816.87 573.80 1816.58 574.98 C 1816.24 575.49 1815.56 576.50 1815.22 577.00 L 1801.94 577.00 C 1802.66 574.64 1803.13 572.02 1805.21 570.40 C 1806.36 567.02 1809.84 565.54 1813.22 565.96 C 1813.27 561.44 1818.07 558.23 1822.27 560.14 C 1820.93 555.06 1826.22 550.49 1831.06 552.67 C 1830.54 548.15 1835.46 544.40 1839.67 546.34 C 1837.59 541.70 1841.97 536.29 1846.96 537.68 C 1845.53 533.59 1848.31 529.04 1852.72 528.84 C 1851.81 524.78 1855.35 520.81 1859.49 521.31 C 1857.10 516.70 1861.44 511.10 1866.49 512.28 C 1863.28 507.74 1867.51 501.10 1873.00 502.58 C 1872.28 500.79 1871.09 499.04 1871.63 497.03 C 1872.04 493.97 1875.02 492.03 1877.96 491.97 C 1876.40 488.75 1877.42 484.76 1880.68 483.06 Z"></path><path fill="#48141a" opacity="1.00" d=" M 1743.79 515.89 C 1744.64 511.10 1750.94 509.29 1754.34 512.67 C 1756.63 515.39 1756.20 519.40 1753.72 521.83 C 1758.25 522.74 1760.16 528.35 1757.40 531.97 C 1762.75 531.71 1765.89 538.35 1762.43 542.39 C 1767.22 541.81 1771.15 547.43 1768.39 551.62 C 1773.02 551.67 1776.33 556.61 1774.23 560.86 C 1778.98 559.94 1782.67 564.83 1781.23 569.26 C 1784.11 568.87 1786.65 570.45 1788.04 572.93 C 1789.09 572.49 1790.15 572.04 1791.23 571.58 C 1791.53 573.39 1791.88 575.19 1792.28 577.00 L 1776.15 577.00 C 1776.25 575.64 1776.36 574.28 1776.48 572.93 C 1771.59 573.67 1767.84 568.34 1769.91 563.95 C 1764.89 564.76 1760.97 559.09 1763.50 554.66 C 1758.15 554.87 1755.12 548.01 1758.86 544.23 C 1753.38 545.05 1749.80 538.43 1753.06 534.13 C 1750.47 533.92 1747.76 532.59 1746.97 529.94 C 1745.97 527.49 1747.08 524.90 1748.82 523.12 C 1745.70 522.12 1743.33 519.30 1743.79 515.89 Z"></path></g><g id="#c96f28ff"><path fill="#c96f28" opacity="1.00" d=" M 489.94 196.94 C 490.78 196.22 491.46 195.02 492.70 195.00 C 497.13 210.61 507.37 223.93 519.17 234.78 C 523.98 239.38 529.90 242.84 533.77 248.37 C 539.97 256.93 542.32 267.63 543.03 278.01 C 544.04 295.38 540.83 312.74 536.03 329.37 C 534.48 331.85 533.76 334.75 532.35 337.31 C 526.03 350.76 515.67 362.28 502.80 369.75 C 490.39 376.77 476.21 380.61 461.99 381.16 C 448.18 381.81 434.32 376.19 424.68 366.34 C 423.37 365.21 422.93 363.53 422.61 361.92 C 423.64 352.82 421.39 342.84 414.56 336.37 C 412.32 334.19 409.40 331.54 410.26 328.05 C 411.50 323.85 414.80 320.72 416.85 316.93 C 421.25 309.83 422.03 301.05 420.33 293.00 C 418.99 285.17 414.60 278.13 414.20 270.11 C 413.36 262.10 416.92 254.11 422.78 248.74 C 432.57 239.53 445.46 234.88 456.61 227.66 C 463.12 223.70 468.25 218.00 473.82 212.90 C 479.24 207.63 484.77 202.46 489.94 196.94 M 490.77 276.13 L 490.50 277.31 C 491.89 277.99 493.49 277.87 495.01 278.05 C 505.69 278.53 516.34 277.31 526.90 275.77 C 527.89 275.36 530.30 275.96 529.96 274.24 C 522.93 271.59 515.53 269.50 507.96 269.74 C 501.71 269.78 495.44 271.91 490.77 276.13 M 419.90 275.60 C 430.46 277.64 441.23 278.67 451.99 278.84 C 454.95 278.59 458.13 279.00 460.95 277.95 C 458.93 274.62 454.84 272.88 451.26 271.62 C 440.79 268.70 429.60 271.29 419.90 275.60 M 476.20 279.03 C 476.12 291.32 476.00 303.63 475.91 315.93 C 476.65 318.52 479.92 318.11 481.99 317.84 C 486.04 316.93 488.21 312.80 489.01 309.05 C 489.37 304.80 489.37 300.32 487.57 296.35 C 484.68 289.89 481.40 283.50 476.71 278.14 C 476.59 278.36 476.33 278.81 476.20 279.03 Z"></path><path fill="#c96f28" opacity="1.00" d=" M 1434.23 222.13 C 1453.37 212.99 1474.84 208.18 1496.08 210.09 C 1513.53 211.48 1531.13 217.81 1543.66 230.38 C 1545.24 232.55 1545.24 235.47 1546.11 237.97 C 1548.50 246.39 1550.07 255.06 1553.00 263.31 C 1555.78 276.55 1558.60 289.78 1561.82 302.92 C 1563.48 310.56 1566.56 318.10 1565.63 326.08 C 1564.13 345.31 1557.43 363.78 1549.19 381.08 C 1544.04 391.21 1538.30 401.37 1529.82 409.11 C 1524.63 413.29 1518.73 417.12 1511.97 417.90 C 1506.31 418.47 1500.55 418.30 1495.02 416.94 C 1479.54 413.49 1464.47 408.49 1449.08 404.74 C 1442.78 402.85 1436.23 401.62 1430.31 398.66 C 1427.67 397.39 1425.28 395.54 1422.35 394.99 C 1421.92 394.01 1421.34 393.13 1420.41 392.61 C 1413.06 387.07 1407.43 379.41 1403.95 370.92 C 1402.32 367.64 1401.82 363.86 1400.27 360.62 C 1389.96 358.89 1379.29 352.60 1376.42 341.93 C 1373.58 330.25 1369.42 318.86 1367.76 306.92 C 1367.46 303.09 1366.82 298.64 1369.33 295.37 C 1371.48 292.97 1375.03 293.77 1377.86 294.11 C 1386.65 296.21 1394.11 301.97 1399.66 308.95 C 1400.04 297.02 1400.79 284.70 1405.57 273.60 C 1407.56 268.54 1412.47 265.62 1415.15 261.01 C 1419.86 253.64 1421.14 244.58 1420.20 236.01 C 1421.73 229.13 1428.52 225.31 1434.23 222.13 M 1525.48 272.63 C 1520.60 273.97 1516.07 276.89 1513.05 280.94 C 1512.09 282.95 1513.95 284.74 1515.91 284.69 C 1525.62 285.74 1535.41 284.77 1545.10 283.85 C 1546.46 283.59 1548.74 283.85 1549.05 281.96 C 1549.79 280.59 1548.62 279.18 1547.53 278.49 C 1541.30 273.86 1533.27 270.67 1525.48 272.63 M 1455.39 273.55 C 1450.15 274.48 1445.32 277.04 1441.12 280.24 C 1439.41 281.34 1439.89 284.52 1442.02 284.76 C 1451.30 285.84 1460.67 286.67 1470.02 286.24 C 1472.00 285.97 1474.31 286.24 1476.00 284.92 C 1476.97 283.57 1476.43 281.77 1475.24 280.79 C 1470.28 275.41 1462.74 272.15 1455.39 273.55 M 1485.37 322.40 C 1482.69 323.97 1479.66 326.53 1480.15 329.99 C 1480.70 332.77 1483.49 334.11 1485.74 335.34 C 1488.84 336.92 1492.20 335.37 1495.23 334.42 C 1498.53 334.46 1500.94 337.10 1503.90 338.19 C 1508.33 340.16 1511.53 334.45 1515.98 335.03 C 1518.80 335.21 1522.33 334.38 1523.34 331.36 C 1524.96 328.19 1522.84 324.61 1520.14 322.85 C 1515.95 320.07 1512.69 316.14 1510.23 311.79 C 1509.48 310.88 1509.16 309.43 1507.99 309.01 C 1500.34 313.25 1492.98 318.07 1485.37 322.40 Z"></path><path fill="#c96f28" opacity="1.00" d=" M 173.93 247.85 C 182.50 244.92 191.87 244.39 200.69 246.52 C 205.07 247.97 208.19 251.65 212.25 253.70 C 214.59 254.83 217.54 254.42 219.53 256.30 C 223.85 260.07 226.12 265.55 228.25 270.74 C 232.89 283.08 235.71 296.02 238.04 308.97 C 238.54 311.05 238.23 313.94 240.57 314.99 C 242.65 323.54 246.31 331.70 247.18 340.53 C 250.08 365.57 242.65 390.58 231.93 412.98 C 227.64 421.78 222.91 430.38 217.51 438.55 C 211.48 447.45 203.24 455.08 193.20 459.18 C 179.66 464.42 164.46 462.80 151.11 457.81 C 137.96 453.09 126.13 445.35 115.10 436.91 C 105.35 429.06 95.91 420.48 89.22 409.78 C 88.56 408.55 87.47 407.70 86.28 407.05 C 85.15 403.67 84.08 400.27 82.77 396.95 C 82.82 393.22 81.06 389.66 80.03 386.14 C 71.42 386.71 63.68 382.03 57.63 376.35 C 49.49 368.95 42.27 360.07 38.52 349.61 C 36.28 342.67 35.78 334.36 39.90 328.01 C 41.62 325.04 45.22 324.56 48.30 324.16 C 51.10 324.16 54.12 323.75 56.67 325.19 C 59.06 326.65 62.13 325.99 64.39 327.74 C 75.26 334.46 80.49 347.13 83.73 358.95 C 82.86 344.30 80.96 329.61 81.42 314.92 C 82.50 318.26 83.53 321.62 84.75 324.93 C 87.53 314.46 88.43 303.55 90.94 293.01 C 94.91 277.57 106.58 264.44 121.33 258.49 C 132.32 256.40 143.70 256.99 154.59 254.25 C 161.09 252.28 167.45 249.87 173.93 247.85 M 190.18 312.33 C 188.76 313.05 189.51 315.35 191.11 314.84 C 194.71 314.16 198.29 313.34 201.96 313.20 C 210.94 312.39 219.89 314.41 228.87 313.67 C 218.26 305.15 201.29 303.68 190.18 312.33 M 113.98 327.96 C 119.54 327.74 124.70 325.43 130.00 323.96 C 137.01 321.76 144.33 320.52 151.69 320.59 C 151.92 320.21 152.36 319.43 152.59 319.05 L 152.04 318.13 C 138.97 311.85 123.05 317.49 113.98 327.96 M 169.24 352.32 C 167.54 353.66 167.85 356.14 167.26 358.04 C 166.32 364.96 159.30 368.67 157.12 375.03 C 155.71 380.03 160.50 384.20 165.07 384.79 C 169.31 385.98 172.90 380.90 177.07 382.86 C 181.13 384.47 185.63 384.55 189.89 383.86 C 192.11 383.28 193.28 381.15 194.46 379.38 C 197.40 375.64 203.81 376.62 205.98 372.04 C 208.45 368.19 206.08 362.57 201.73 361.41 C 195.51 360.12 190.11 356.60 184.06 354.81 C 179.28 353.36 174.32 351.23 169.24 352.32 Z"></path><path fill="#c96f28" opacity="1.00" d=" M 1886.97 493.59 C 1887.28 493.26 1887.90 492.60 1888.21 492.27 C 1901.24 492.57 1914.29 494.09 1926.94 497.37 C 1943.87 501.76 1960.25 509.77 1972.49 522.50 C 1986.56 536.95 1994.42 556.93 1995.04 577.00 L 1815.22 577.00 C 1815.56 576.50 1816.24 575.49 1816.58 574.98 C 1818.45 574.19 1820.65 573.48 1821.40 571.35 C 1822.16 570.86 1822.96 570.40 1823.78 569.94 C 1826.76 569.34 1828.88 566.96 1831.29 565.27 C 1834.02 562.89 1837.40 561.00 1839.20 557.73 C 1840.60 556.74 1841.88 555.60 1842.83 554.14 L 1843.34 554.81 C 1845.53 553.07 1847.80 551.18 1848.89 548.52 C 1849.43 547.78 1850.01 547.06 1850.63 546.36 C 1850.91 546.36 1851.47 546.35 1851.75 546.34 C 1853.75 544.33 1856.15 542.33 1856.89 539.47 C 1857.12 539.14 1857.57 538.49 1857.79 538.16 L 1858.27 538.93 C 1866.05 530.37 1872.79 520.87 1878.85 511.03 C 1881.90 505.42 1885.60 499.92 1886.97 493.59 Z"></path><path fill="#c96f28" opacity="1.00" d=" M 1723.06 518.87 C 1729.38 518.60 1735.85 518.52 1742.00 516.83 C 1747.93 538.72 1755.69 561.74 1773.47 577.00 L 1648.17 577.00 C 1649.55 561.43 1654.35 545.07 1666.23 534.23 C 1673.85 527.15 1683.86 523.23 1693.95 521.28 C 1703.54 519.45 1713.32 519.18 1723.06 518.87 Z"></path></g><g id="#801642ff"><path fill="#801642" opacity="1.00" d=" M 490.77 276.13 C 495.44 271.91 501.71 269.78 507.96 269.74 C 515.53 269.50 522.93 271.59 529.96 274.24 C 530.30 275.96 527.89 275.36 526.90 275.77 C 516.34 277.31 505.69 278.53 495.01 278.05 C 493.49 277.87 491.89 277.99 490.50 277.31 L 490.77 276.13 Z"></path><path fill="#801642" opacity="1.00" d=" M 419.90 275.60 C 429.60 271.29 440.79 268.70 451.26 271.62 C 454.84 272.88 458.93 274.62 460.95 277.95 C 458.13 279.00 454.95 278.59 451.99 278.84 C 441.23 278.67 430.46 277.64 419.90 275.60 Z"></path></g><g id="#b66028ff"><path fill="#b66028" opacity="1.00" d=" M 476.20 279.03 C 476.33 278.81 476.59 278.36 476.71 278.14 C 481.40 283.50 484.68 289.89 487.57 296.35 C 489.37 300.32 489.37 304.80 489.01 309.05 C 488.21 312.80 486.04 316.93 481.99 317.84 C 479.92 318.11 476.65 318.52 475.91 315.93 C 476.00 303.63 476.12 291.32 476.20 279.03 Z"></path><path fill="#b66028" opacity="1.00" d=" M 1485.37 322.40 C 1492.98 318.07 1500.34 313.25 1507.99 309.01 C 1509.16 309.43 1509.48 310.88 1510.23 311.79 C 1512.69 316.14 1515.95 320.07 1520.14 322.85 C 1522.84 324.61 1524.96 328.19 1523.34 331.36 C 1522.33 334.38 1518.80 335.21 1515.98 335.03 C 1511.53 334.45 1508.33 340.16 1503.90 338.19 C 1500.94 337.10 1498.53 334.46 1495.23 334.42 C 1492.20 335.37 1488.84 336.92 1485.74 335.34 C 1483.49 334.11 1480.70 332.77 1480.15 329.99 C 1479.66 326.53 1482.69 323.97 1485.37 322.40 Z"></path><path fill="#b66028" opacity="1.00" d=" M 169.24 352.32 C 174.32 351.23 179.28 353.36 184.06 354.81 C 190.11 356.60 195.51 360.12 201.73 361.41 C 206.08 362.57 208.45 368.19 205.98 372.04 C 203.81 376.62 197.40 375.64 194.46 379.38 C 193.28 381.15 192.11 383.28 189.89 383.86 C 185.63 384.55 181.13 384.47 177.07 382.86 C 172.90 380.90 169.31 385.98 165.07 384.79 C 160.50 384.20 155.71 380.03 157.12 375.03 C 159.30 368.67 166.32 364.96 167.26 358.04 C 167.85 356.14 167.54 353.66 169.24 352.32 Z"></path><path fill="#b66028" opacity="1.00" d=" M 421.51 368.84 C 421.79 366.52 422.31 364.24 422.61 361.92 C 422.93 363.53 423.37 365.21 424.68 366.34 C 434.32 376.19 448.18 381.81 461.99 381.16 C 476.21 380.61 490.39 376.77 502.80 369.75 C 502.55 381.44 503.52 393.15 505.76 404.63 C 496.86 416.00 489.27 428.40 483.72 441.75 C 482.33 445.95 477.32 446.23 473.92 447.99 C 470.86 449.13 468.84 452.57 465.44 452.69 C 456.24 432.81 435.86 420.63 415.12 415.93 C 416.39 411.07 417.24 405.85 415.04 401.11 C 418.98 392.85 423.95 384.42 423.86 374.98 C 424.02 372.63 422.25 370.90 421.51 368.84 Z"></path><path fill="#b66028" opacity="1.00" d=" M 1422.35 394.99 C 1425.28 395.54 1427.67 397.39 1430.31 398.66 C 1436.23 401.62 1442.78 402.85 1449.08 404.74 C 1464.47 408.49 1479.54 413.49 1495.02 416.94 C 1500.55 418.30 1506.31 418.47 1511.97 417.90 C 1518.73 417.12 1524.63 413.29 1529.82 409.11 C 1534.16 418.35 1540.83 426.26 1548.09 433.33 C 1547.85 443.98 1545.96 454.95 1540.10 464.04 C 1532.84 475.74 1520.81 483.65 1508.05 488.26 C 1493.65 493.59 1478.23 495.69 1462.94 496.06 C 1458.61 496.29 1454.24 496.12 1450.04 495.01 C 1440.01 492.49 1430.21 488.40 1422.07 481.92 C 1418.37 478.92 1415.14 475.17 1413.44 470.68 C 1411.44 465.16 1412.83 458.88 1416.20 454.20 C 1420.75 447.80 1423.19 440.12 1424.20 432.39 C 1425.98 419.93 1424.42 407.31 1422.35 394.99 Z"></path><path fill="#b66028" opacity="1.00" d=" M 86.28 407.05 C 87.47 407.70 88.56 408.55 89.22 409.78 C 95.91 420.48 105.35 429.06 115.10 436.91 C 126.13 445.35 137.96 453.09 151.11 457.81 C 164.46 462.80 179.66 464.42 193.20 459.18 C 192.13 462.06 190.94 464.90 189.99 467.83 C 189.89 468.05 189.70 468.49 189.60 468.71 C 184.90 480.66 179.80 492.94 179.74 505.99 C 180.13 515.22 181.71 524.37 183.14 533.49 C 181.09 534.77 179.02 536.00 176.85 537.06 C 174.96 534.88 175.73 530.65 172.68 529.45 C 159.71 524.69 146.87 519.54 134.33 513.76 C 114.71 504.58 94.87 494.81 78.71 480.13 C 79.11 475.86 82.42 472.92 84.38 469.36 C 89.82 459.88 91.65 448.71 91.35 437.89 L 90.58 437.59 C 90.19 437.48 89.41 437.24 89.02 437.12 C 89.61 437.15 90.78 437.21 91.37 437.23 C 91.08 426.99 89.04 416.89 86.28 407.05 Z"></path></g><g id="#441029ff"><path fill="#441029" opacity="1.00" d=" M 1711.76 326.74 C 1717.75 323.12 1724.91 320.47 1731.97 322.21 C 1737.39 323.33 1741.81 327.22 1744.73 331.78 C 1737.53 328.83 1729.94 325.54 1721.98 326.28 C 1718.57 326.53 1715.82 328.63 1712.93 330.18 C 1710.45 330.83 1707.10 329.11 1707.18 326.28 C 1708.70 326.31 1710.21 326.66 1711.76 326.74 Z"></path><path fill="#441029" opacity="1.00" d=" M 1775.20 327.68 C 1780.83 321.71 1790.57 320.50 1797.78 324.25 C 1802.04 325.96 1804.96 329.60 1808.33 332.56 C 1809.42 332.63 1812.12 331.84 1811.77 333.82 C 1810.39 336.09 1807.19 335.36 1805.10 334.76 C 1802.90 332.60 1801.20 329.67 1798.08 328.74 C 1790.78 326.13 1782.74 326.39 1775.20 327.68 Z"></path></g><g id="#5e121bff"><path fill="#5e121b" opacity="1.00" d=" M 1745.44 345.43 C 1747.60 342.38 1748.82 338.45 1751.83 336.12 C 1750.79 350.72 1749.47 365.30 1748.64 379.92 C 1748.55 381.65 1747.77 383.67 1745.90 384.07 C 1741.95 384.56 1737.68 383.93 1734.37 381.63 C 1732.74 379.49 1732.83 376.60 1733.23 374.09 C 1735.24 363.78 1740.62 354.62 1745.44 345.43 Z"></path></g><g id="#dc603aff"><path fill="#dc603a" opacity="1.00" d=" M 505.76 404.63 C 508.49 401.68 510.74 398.16 513.94 395.73 C 517.90 399.21 521.68 402.95 524.96 407.09 C 529.83 413.08 533.76 420.76 532.01 428.69 C 528.92 437.05 520.59 441.76 512.64 444.60 C 503.91 447.82 493.92 448.63 486.66 455.01 C 486.89 459.38 487.66 464.16 485.08 468.05 C 484.08 470.50 481.27 471.69 480.16 473.87 C 486.47 479.99 491.84 487.40 493.89 496.09 C 496.36 505.27 495.13 515.09 491.95 523.93 C 488.96 532.75 483.31 540.32 480.00 549.00 C 476.58 557.77 473.29 567.71 476.73 577.00 L 475.16 577.00 C 469.43 570.54 463.86 563.78 460.15 555.91 C 458.11 551.88 456.78 547.55 455.22 543.32 C 448.49 549.74 440.36 555.14 431.09 556.84 C 440.98 552.54 447.30 542.51 448.65 532.02 C 450.19 524.14 447.94 516.14 449.40 508.27 C 451.48 495.43 459.23 484.19 468.72 475.60 C 467.94 473.79 465.17 473.63 464.04 471.94 C 460.99 468.72 462.76 464.08 462.94 460.22 C 455.75 454.35 445.95 453.60 437.03 453.29 C 429.07 453.27 421.12 453.22 413.17 452.77 C 412.86 447.51 410.58 442.58 406.63 439.10 C 409.92 431.56 412.95 423.88 415.12 415.93 C 435.86 420.63 456.24 432.81 465.44 452.69 C 468.84 452.57 470.86 449.13 473.92 447.99 C 477.32 446.23 482.33 445.95 483.72 441.75 C 489.27 428.40 496.86 416.00 505.76 404.63 Z"></path><path fill="#dc603a" opacity="1.00" d=" M 1501.40 543.42 C 1530.87 543.32 1560.35 543.38 1589.82 543.39 C 1591.04 547.25 1590.18 551.99 1590.24 556.18 C 1589.71 556.25 1588.65 556.38 1588.13 556.45 C 1560.00 556.33 1531.87 556.30 1503.75 556.46 C 1503.16 556.28 1501.97 555.91 1501.37 555.72 C 1501.34 551.62 1501.32 547.51 1501.40 543.42 Z"></path></g><g id="#421317ff"><path fill="#421317" opacity="1.00" d=" M 90.58 437.59 L 91.35 437.89 C 91.65 448.71 89.82 459.88 84.38 469.36 C 82.42 472.92 79.11 475.86 78.71 480.13 C 73.43 474.97 68.18 468.71 67.76 460.99 C 67.60 453.32 73.78 447.63 79.74 443.82 C 83.18 441.42 87.47 440.46 90.58 437.59 Z"></path><path fill="#421317" opacity="1.00" d=" M 189.60 468.71 C 195.22 474.58 199.75 481.57 202.84 489.09 C 206.41 497.58 206.73 507.86 202.01 515.98 C 197.66 523.53 190.67 529.29 183.14 533.49 C 181.71 524.37 180.13 515.22 179.74 505.99 C 179.80 492.94 184.90 480.66 189.60 468.71 Z"></path></g><g id="#561616ff"><path fill="#561616" opacity="1.00" d=" M 0.00 486.94 C 15.76 480.08 32.41 475.24 49.35 472.32 C 48.66 478.68 48.23 485.33 50.54 491.44 C 55.59 505.63 66.82 516.44 78.20 525.78 C 93.94 538.27 111.71 548.09 130.28 555.70 C 140.82 559.60 151.66 563.85 163.06 563.91 C 168.50 563.91 172.75 560.30 176.26 556.57 C 177.13 558.90 176.49 561.83 178.21 563.77 C 181.22 564.43 183.93 561.94 186.23 560.28 C 192.22 554.60 198.28 548.88 203.16 542.18 C 208.27 535.58 213.16 528.52 215.39 520.37 C 219.85 504.86 217.93 486.88 207.87 473.90 C 229.46 478.06 250.76 484.45 270.43 494.38 C 287.93 503.23 304.11 515.26 316.06 530.95 C 326.14 544.27 333.21 560.24 334.53 577.00 L 0.00 577.00 L 0.00 486.94 Z"></path></g><g id="#ed9e1bff"><path fill="#ed9e1b" opacity="1.00" d=" M 1842.67 549.22 C 1844.78 549.84 1846.94 549.61 1848.89 548.52 C 1847.80 551.18 1845.53 553.07 1843.34 554.81 L 1842.83 554.14 C 1843.19 552.48 1843.14 550.84 1842.67 549.22 Z"></path></g></svg>